<?xml version="1.0" encoding="utf-8"?>
<!-- Generator: Adobe Illustrator 27.5.0, SVG Export Plug-In . SVG Version: 6.00 Build 0)  -->
<svg version="1.1" id="Слой_1" xmlns="http://www.w3.org/2000/svg" xmlns:xlink="http://www.w3.org/1999/xlink" x="0px" y="0px"
	 viewBox="0 0 4000 4000" style="enable-background:new 0 0 4000 4000;" xml:space="preserve">
<rect style="fill:#FFFFFF;" width="4000" height="4000"/>
<g>
	<circle cx="2000" cy="2000" r="1644.264"/>
	<g>
		<g>
			<path style="fill:#FFFFFF;" d="M3092.436,1671.102l98.216,193.265c2.563,5.042,7.443,8.501,13.049,9.249l214.887,28.657
				c14.119,1.883,19.95,19.138,9.867,29.199L3275,2084.603c-4.004,3.995-5.785,9.705-4.764,15.268l39.149,213.225
				c2.572,14.01-12.037,24.887-24.721,18.407l-193.057-98.625c-5.037-2.573-11.018-2.503-15.993,0.188l-190.692,103.123
				c-12.529,6.775-27.388-3.757-25.146-17.823l34.14-214.084c0.891-5.585-1.024-11.252-5.12-15.152l-157.003-149.491
				c-10.315-9.822-4.89-27.209,9.18-29.422l214.156-33.687c5.587-0.879,10.385-4.451,12.829-9.552l93.658-195.515
				C3067.771,1658.618,3085.983,1658.404,3092.436,1671.102z"/>
		</g>
		<g>
			<path style="fill:#FFFFFF;" d="M2016.549,1671.102l98.216,193.265c2.563,5.042,7.442,8.501,13.049,9.249l214.887,28.657
				c14.119,1.883,19.95,19.138,9.868,29.199l-153.456,153.131c-4.004,3.995-5.785,9.705-4.764,15.268l39.15,213.225
				c2.572,14.01-12.037,24.887-24.721,18.408l-193.057-98.625c-5.036-2.573-11.017-2.503-15.992,0.187l-190.692,103.124
				c-12.529,6.776-27.388-3.757-25.146-17.823l34.14-214.085c0.891-5.585-1.024-11.252-5.121-15.152l-157.003-149.492
				c-10.315-9.822-4.89-27.209,9.18-29.422l214.156-33.687c5.587-0.879,10.385-4.451,12.828-9.552l93.658-195.515
				C1991.883,1658.618,2010.096,1658.404,2016.549,1671.102z"/>
		</g>
		<g>
			<path style="fill:#FFFFFF;" d="M932.473,1671.102l98.216,193.265c2.563,5.042,7.442,8.501,13.049,9.249l214.887,28.657
				c14.119,1.883,19.95,19.138,9.867,29.199l-153.456,153.131c-4.004,3.995-5.785,9.705-4.764,15.268l39.15,213.225
				c2.572,14.01-12.037,24.887-24.721,18.407l-193.057-98.625c-5.037-2.573-11.017-2.503-15.993,0.188L724.96,2336.19
				c-12.529,6.775-27.388-3.757-25.145-17.823l34.14-214.084c0.891-5.585-1.024-11.252-5.121-15.152l-157.003-149.491
				c-10.316-9.822-4.89-27.209,9.18-29.422l214.156-33.687c5.587-0.879,10.385-4.451,12.828-9.552l93.658-195.515
				C907.808,1658.618,926.02,1658.404,932.473,1671.102z"/>
		</g>
	</g>
</g>
</svg>
