<?xml version="1.0"?>
<svg xmlns="http://www.w3.org/2000/svg" id="Layer_1" data-name="Layer 1" viewBox="0 0 64 64"><path d="M10.348,61.923a1,1,0,0,0,1.089-.212L21.592,51.668,31.281,61.7a1.032,1.032,0,0,0,1.438,0l9.689-10.027L52.563,61.711a1,1,0,0,0,1.7-.711V8.567c0-.006,0-.011,0-.017s0-.011,0-.017V3a1,1,0,0,0-1-1H10.733a1,1,0,0,0-1,1V8.533c0,.006,0,.011,0,.017s0,.011,0,.017V61A1,1,0,0,0,10.348,61.923ZM43.1,49.535a1.174,1.174,0,0,0-.715-.289,1,1,0,0,0-.708.3L32,59.561l-9.672-10.01a1,1,0,0,0-.708-.3h-.012a1,1,0,0,0-.7.289L11.733,58.6V9.55H52.267V58.6ZM52.267,4V7.55H11.733V4Z"/><path d="M21.9,12.964a4.613,4.613,0,1,0,4.613,4.613A4.618,4.618,0,0,0,21.9,12.964Zm0,7.225a2.613,2.613,0,1,1,2.613-2.612A2.614,2.614,0,0,1,21.9,20.189Z"/><path d="M45.709,16.081H29.9a1,1,0,0,0,0,2H45.709a1,1,0,0,0,0-2Z"/><path d="M21.9,24.561a4.613,4.613,0,1,0,4.613,4.613A4.618,4.618,0,0,0,21.9,24.561Zm0,7.225a2.613,2.613,0,1,1,2.613-2.612A2.615,2.615,0,0,1,21.9,31.786Z"/><path d="M45.709,27.678H29.9a1,1,0,0,0,0,2H45.709a1,1,0,0,0,0-2Z"/><path d="M21.9,36.157a4.614,4.614,0,1,0,4.613,4.614A4.618,4.618,0,0,0,21.9,36.157Zm0,7.227a2.614,2.614,0,1,1,2.613-2.613A2.615,2.615,0,0,1,21.9,43.384Z"/><path d="M45.709,39.274H29.9a1,1,0,1,0,0,2H45.709a1,1,0,0,0,0-2Z"/></svg>
